<?xml version="1.0" encoding="UTF-8" standalone="no"?>
<!-- Created with Inkscape (http://www.inkscape.org/) -->

<svg
   xmlns:dc="http://purl.org/dc/elements/1.1/"
   xmlns:cc="http://creativecommons.org/ns#"
   xmlns:rdf="http://www.w3.org/1999/02/22-rdf-syntax-ns#"
   xmlns:svg="http://www.w3.org/2000/svg"
   xmlns="http://www.w3.org/2000/svg"
   xmlns:sodipodi="http://sodipodi.sourceforge.net/DTD/sodipodi-0.dtd"
   xmlns:inkscape="http://www.inkscape.org/namespaces/inkscape"
   inkscape:export-ydpi="90.000000"
   inkscape:export-xdpi="90.000000"
   width="41"
   height="41"
   id="svg11300"
   sodipodi:version="0.32"
   inkscape:version="0.91+devel r"
   sodipodi:docname="close.svg"
   inkscape:output_extension="org.inkscape.output.svg.inkscape"
   version="1.0"
   style="display:inline;enable-background:new"
   inkscape:export-filename="/home/sam/moka-next-template.png">
  <sodipodi:namedview
     stroke="#ef2929"
     fill="#f57900"
     id="base"
     pagecolor="#8c8c8c"
     bordercolor="#ff5e00"
     borderopacity="1"
     inkscape:pageopacity="0"
     inkscape:pageshadow="2"
     inkscape:zoom="17.04878"
     inkscape:cx="20.5"
     inkscape:cy="20.5"
     inkscape:current-layer="layer1"
     showgrid="true"
     inkscape:grid-bbox="true"
     inkscape:document-units="px"
     inkscape:showpageshadow="false"
     inkscape:window-width="1600"
     inkscape:window-height="846"
     inkscape:window-x="0"
     inkscape:window-y="25"
     width="400px"
     height="300px"
     inkscape:snap-nodes="true"
     inkscape:snap-bbox="true"
     gridtolerance="10000"
     inkscape:object-nodes="false"
     inkscape:snap-grids="true"
     showguides="true"
     inkscape:guide-bbox="true"
     inkscape:window-maximized="1"
     inkscape:bbox-nodes="false"
     inkscape:bbox-paths="false"
     inkscape:snap-bbox-edge-midpoints="false"
     inkscape:snap-bbox-midpoints="false"
     objecttolerance="10000"
     guidetolerance="10000"
     borderlayer="true"
     showborder="true"
     guidecolor="#ff0b00"
     guideopacity="1"
     guidehicolor="#001aff"
     guidehiopacity="0.49803922">
    <inkscape:grid
       type="xygrid"
       id="grid3123"
       empspacing="4"
       visible="true"
       enabled="true"
       snapvisiblegridlinesonly="true" />
  </sodipodi:namedview>
  <defs
     id="defs3" />
  <metadata
     id="metadata4">
    <rdf:RDF>
      <cc:Work
         rdf:about="">
        <dc:format>image/svg+xml</dc:format>
        <dc:type
           rdf:resource="http://purl.org/dc/dcmitype/StillImage" />
        <dc:creator>
          <cc:Agent>
            <dc:title></dc:title>
          </cc:Agent>
        </dc:creator>
        <dc:source />
        <cc:license
           rdf:resource="" />
        <dc:title></dc:title>
        <dc:subject>
          <rdf:Bag />
        </dc:subject>
        <dc:date />
        <dc:rights>
          <cc:Agent>
            <dc:title />
          </cc:Agent>
        </dc:rights>
        <dc:publisher>
          <cc:Agent>
            <dc:title />
          </cc:Agent>
        </dc:publisher>
        <dc:identifier />
        <dc:relation />
        <dc:language />
        <dc:coverage />
        <dc:description />
        <dc:contributor>
          <cc:Agent>
            <dc:title />
          </cc:Agent>
        </dc:contributor>
      </cc:Work>
      <cc:Work
         rdf:about="">
        <dc:format>image/svg+xml</dc:format>
        <dc:type
           rdf:resource="http://purl.org/dc/dcmitype/StillImage" />
      </cc:Work>
    </rdf:RDF>
  </metadata>
  <g
     style="display:inline"
     inkscape:groupmode="layer"
     inkscape:label="Base"
     id="layer1"
     transform="translate(0,-259)">
    <path
       style="fill:#12161a;fill-opacity:1;stroke:none;opacity:0.35"
       d="M 20.5 3 C 10.83502 3 3 10.835019 3 20.5 C 3 30.164981 10.83502 38 20.5 38 C 30.16498 38 38 30.164981 38 20.5 C 38 10.835019 30.16498 3 20.5 3 z M 20.5 4 C 29.612699 4 37 11.387301 37 20.5 C 37 29.612699 29.612699 37 20.5 37 C 11.387301 37 4 29.612699 4 20.5 C 4 11.387301 11.387301 4 20.5 4 z "
       transform="translate(0,259)"
       id="path4069" />
    <path
       transform="matrix(1.7142852,0,0,2.6009845,-8.1071349,253.57144)"
       d="m 26.3125,9.96875 a 9.625,6.34375 0 0 1 -9.625,6.34375 9.625,6.34375 0 0 1 -9.625,-6.34375 9.625,6.34375 0 0 1 9.625,-6.34375 9.625,6.34375 0 0 1 9.625,6.34375 z"
       sodipodi:ry="6.34375"
       sodipodi:rx="9.625"
       sodipodi:cy="9.96875"
       sodipodi:cx="16.6875"
       id="path4062"
       style="fill:#ffffff;fill-opacity:1;stroke:none;opacity:0.35"
       sodipodi:type="arc" />
    <path
       transform="matrix(1.5064935,0,0,2.2857143,-4.6396106,256.71429)"
       d="m 26.3125,9.96875 a 9.625,6.34375 0 0 1 -9.625,6.34375 9.625,6.34375 0 0 1 -9.625,-6.34375 9.625,6.34375 0 0 1 9.625,-6.34375 9.625,6.34375 0 0 1 9.625,6.34375 z"
       sodipodi:ry="6.34375"
       sodipodi:rx="9.625"
       sodipodi:cy="9.96875"
       sodipodi:cx="16.6875"
       id="path4104"
       style="fill:#12161a;fill-opacity:1;stroke:none"
       sodipodi:type="arc" />
    <path
       style="fill:#ffffff;fill-opacity:1;stroke:none;opacity:0.2"
       d="M 20.5 4 C 11.387304 4 4 11.387304 4 20.5 C 4 29.612696 11.387304 37 20.5 37 C 29.612696 37 37 29.612696 37 20.5 C 37 11.387304 29.612696 4 20.5 4 z M 20.5 5 C 29.060414 5 36 11.939586 36 20.5 C 36 29.060414 29.060414 36 20.5 36 C 11.939586 36 5 29.060414 5 20.5 C 5 11.939586 11.939586 5 20.5 5 z "
       transform="translate(0,259)"
       id="path4064" />
    <path
       style="font-size:medium;font-style:normal;font-variant:normal;font-weight:normal;font-stretch:normal;text-indent:0;text-align:start;text-decoration:none;line-height:normal;letter-spacing:normal;word-spacing:normal;text-transform:none;direction:ltr;block-progression:tb;writing-mode:lr-tb;text-anchor:start;baseline-shift:baseline;color:#000000;fill:#ffffff;fill-opacity:1;stroke:none;stroke-width:2;marker:none;visibility:visible;display:inline;overflow:visible;enable-background:accumulate;font-family:Sans;-inkscape-font-specification:Sans;opacity:0.9"
       d="M 17.502513,275 16,275 l 0,1.50251 2.997487,2.9975 L 16,282.49749 16,284 17.502513,284 20.5,281.00251 23.497487,284 25,284 25,282.49749 22.002513,279.50001 25,276.50251 25,275 23.497487,275 20.5,277.99749 z"
       id="path4167"
       inkscape:connector-curvature="0"
       sodipodi:nodetypes="ccccccccccccccccc" />
  </g>
</svg>
