<?xml version="1.0" encoding="UTF-8" standalone="no"?>
<!-- Created with Inkscape (http://www.inkscape.org/) -->
<svg id="svg3273" xmlns:rdf="http://www.w3.org/1999/02/22-rdf-syntax-ns#" xmlns="http://www.w3.org/2000/svg" height="22" width="65" version="1.1" xmlns:cc="http://creativecommons.org/ns#" xmlns:dc="http://purl.org/dc/elements/1.1/">
 <metadata id="metadata3278">
  <rdf:RDF>
   <cc:Work rdf:about="">
    <dc:format>image/svg+xml</dc:format>
    <dc:type rdf:resource="http://purl.org/dc/dcmitype/StillImage"/>
    <dc:title/>
   </cc:Work>
  </rdf:RDF>
 </metadata>
 <g id="layer1" transform="translate(-343 -521.36)">
  <g id="g17454" transform="translate(-453 448.36)">
   <rect id="rect17456" ry="4" style="color:#000000;stroke:#2e3436;stroke-linecap:round;fill:none" rx="4" transform="scale(-1,1)" height="19" width="63" y="74.5" x="-859.5"/>
   <rect id="rect17458" ry="4" style="stroke:#5f5f5f;stroke-linecap:round;stroke-width:2" rx="4" transform="scale(-1,1)" height="20" width="31" y="74" x="-828"/>
   <g id="g17460" transform="matrix(-1 0 0 1 1619.1 -33.986)">
    <path id="path17462" style="stroke:#5f5f5f;stroke-linecap:round;stroke-width:1px;fill:none" d="m803.63 115.49v4.295"/>
    <path id="path17464" style="stroke:#5f5f5f;stroke-linecap:round;stroke-width:1px;fill:none" d="m806.63 115.49v4.295"/>
    <path id="path17466" style="stroke:#5f5f5f;stroke-linecap:round;stroke-width:1px;fill:none" d="m809.62 115.49v4.295"/>
   </g>
   <path id="path18722" style="stroke-width:1.9688;color:#000000;stroke:#fff;stroke-linecap:round;fill:none" d="m51.625 11.562c0 2.1746-1.7629 3.9375-3.9375 3.9375s-3.9375-1.7629-3.9375-3.9375 1.7629-3.9375 3.9375-3.9375 3.9375 1.7629 3.9375 3.9375z" transform="matrix(1.0159 0 0 1.0159 795.56 72.254)"/>
  </g>
 </g>
</svg>
