/* XPM */
static char * close_active_xpm[] = {
"34 36 47 1",
" 	c None",
".	c #424949",
"+	c #424848",
"@	c #414848",
"#	c #414747",
"$	c #404747",
"%	c #404646",
"&	c #3F4646",
"*	c #3E4444",
"=	c #3E4545",
"-	c #212424",
";	c #1F2222",
">	c #202323",
",	c #3D4444",
"'	c #A6A7A6",
")	c #A3A3A1",
"!	c #9C9C9B",
"~	c #ACACAB",
"{	c #202322",
"]	c #3F4545",
"^	c #ACADAC",
"/	c #EEEEEC",
"(	c #171918",
"_	c #B1B2B1",
":	c #434948",
"<	c #B0B2B1",
"[	c #D4D4D2",
"}	c #ADB0AF",
"|	c #B2B4B2",
"1	c #242726",
"2	c #222524",
"3	c #3D4343",
"4	c #9B9C9B",
"5	c #A2A3A1",
"6	c #3F4444",
"7	c #A4A5A4",
"8	c #DADAD8",
"9	c #A4A4A3",
"0	c #B5B7B6",
"a	c #424948",
"b	c #BABCBB",
"c	c #3C4343",
"d	c #3C4242",
"e	c #3B4242",
"f	c #3B4141",
"g	c #3A4141",
"h	c #3A4040",
"                                  ",
"+++++++++++++++++++++++++++++++++ ",
"@@@@@@@@@@@@@@@@@@@@@@@@@@@@@@@@@ ",
"@@@@@@@@@@@@@@@@@@@@@@@@@@@@@@@@@ ",
"@@@@@@@@@@@@@@@@@@@@@@@@@@@@@@@@@ ",
"################################# ",
"################################# ",
"$$$$$$$$$$$$$$$$$$$$$$$$$$$$$$$$$ ",
"$$$$$$$$$$$$$$$$$$$$$$$$$$$$$$$$$ ",
"$$$$$$$$$$$$$$$$$$$$$$$$$$$$$$$$$ ",
"%%%%%%%%%%%%%%%%%%%%%%%%%%%%%%%%% ",
"&&&&&&&&&&&&&*=&&&=*&&&&&&&&&&&&& ",
"&&&&&&&&&&&&*-;=&=>;,&&&&&&&&&&&& ",
"&&&&&&&&&&&*>')>,>!~{,&&&&&&&&&&& ",
"]]]]]]]]]]]#^//)(!//_:]]]]]]]]]]] ",
"]]]]]]]]]]]#<///[///<#]]]]]]]]]]] ",
"============$}/////|#============ ",
"============,1[///[2,============ ",
"***********3;4/////5>3*********** ",
"***********67///8///9************ ",
",,,,,,,,,,,$0//|a}//ba,,,,,,,,,,, ",
",,,,,,,,,,,,$0|%,&}ba,,,,,,,,,,,, ",
"3333333333333#]333]#3333333333333 ",
"333333333333333333333333333333333 ",
"333333333333333333333333333333333 ",
"ccccccccccccccccccccccccccccccccc ",
"ddddddddddddddddddddddddddddddddd ",
"ddddddddddddddddddddddddddddddddd ",
"ddddddddddddddddddddddddddddddddd ",
"ddddddddddddddddddddddddddddddddd ",
"eeeeeeeeeeeeeeeeeeeeeeeeeeeeeeeee ",
"fffffffffffffffffffffffffffffffff ",
"fffffffffffffffffffffffffffffffff ",
"fffffffffffffffffffffffffffffffff ",
"                                  ",
"                                  "};