/* XPM */
static char * close_pressed_xpm[] = {
"34 36 86 1",
" 	c None",
".	c #424949",
"+	c #404646",
"@	c #2D3131",
"#	c #1F2222",
"$	c #1C1F1F",
"%	c #424848",
"&	c #2C3232",
"*	c #1D2020",
"=	c #1E2323",
"-	c #202424",
";	c #1C2121",
">	c #414848",
",	c #1F2323",
"'	c #212424",
")	c #232727",
"!	c #242828",
"~	c #252929",
"{	c #414747",
"]	c #262A2A",
"^	c #404747",
"/	c #272B2B",
"(	c #282C2C",
"_	c #3F4646",
":	c #141616",
"<	c #121313",
"[	c #131414",
"}	c #131515",
"|	c #272A2A",
"1	c #292D2D",
"2	c #A4A4A3",
"3	c #A0A09E",
"4	c #282B2B",
"5	c #999998",
"6	c #AAAAA9",
"7	c #151615",
"8	c #2C3030",
"9	c #A8A8A7",
"0	c #EEEEEC",
"a	c #0E0F0E",
"b	c #ADAEAD",
"c	c #2D3130",
"d	c #3F4545",
"e	c #2B2F2F",
"f	c #A9AAA9",
"g	c #D3D3D1",
"h	c #292E2E",
"i	c #2B3030",
"j	c #A6A7A6",
"k	c #ABACAA",
"l	c #2C3131",
"m	c #3E4545",
"n	c #2A2E2E",
"o	c #181918",
"p	c #171817",
"q	c #3E4444",
"r	c #A0A09F",
"s	c #D7D8D6",
"t	c #2B2E2E",
"u	c #2A2F2F",
"v	c #2E3333",
"w	c #AFB1B0",
"x	c #ABADAB",
"y	c #2F3433",
"z	c #A6A8A7",
"A	c #B5B6B5",
"B	c #3D4444",
"C	c #2F3333",
"D	c #B0B1B0",
"E	c #ACADAB",
"F	c #2E3232",
"G	c #A7A8A7",
"H	c #303433",
"I	c #3D4343",
"J	c #3C4343",
"K	c #3C4242",
"L	c #3B4242",
"M	c #2D3232",
"N	c #1F2121",
"O	c #3B4141",
"P	c #414646",
"Q	c #3A4141",
"R	c #434949",
"S	c #494F4F",
"T	c #4B5151",
"U	c #3A4040",
"..................................",
"+@#$$$$$$$$$$$$$$$$$$$$$$$$$$$#@+%",
"&*=---------------------------=;&>",
",')!!!!!!!!!!!!!!!!!!!!!!!!!!!)'#>",
"$)!!!!!!!!!!!!!!!!!!!!!!!!!!!!!)$>",
"$~~~~~~~~~~~~~~~~~~~~~~~~~~~~~~~${",
"$~~~~~~~~~~~~~~~~~~~~~~~~~~~~~~~${",
"$]]]]]]]]]]]]]]]]]]]]]]]]]]]]]]]$^",
"$]]]]]]]]]]]]]]]]]]]]]]]]]]]]]]]$^",
"$///////////////////////////////$^",
"$///////////////////////////////$+",
"$((((((((((((//(((//(((((((((((($_",
"$(((((((((((/:</(/[}|((((((((((($_",
"$1111111111(}23}4}56741111111111$_",
"$111111111189003a500bc1111111111$d",
"$1111111111ef000g000fe1111111111$d",
"$hhhhhhhhhhhij00000klhhhhhhhhhhh$m",
"$nnnnnnnnnnn1og000gp1nnnnnnnnnnn$m",
"$nnnnnnnnnn1}5000003:1nnnnnnnnnn$q",
"$nnnnnnnnnner000s000rtnnnnnnnnnn$q",
"$uuuuuuuuuuvw00xyz00Ayuuuuuuuuuu$B",
"$eeeeeeeeeeeCDEFe@GAHeeeeeeeeeee$B",
"$eeeeeeeeeeeeC@eee@Ceeeeeeeeeeee$I",
"$eeeeeeeeeeeeeeeeeeeeeeeeeeeeeee$I",
"$iiiiiiiiiiiiiiiiiiiiiiiiiiiiiii$I",
"$iiiiiiiiiiiiiiiiiiiiiiiiiiiiiii$J",
"$8888888888888888888888888888888$K",
"$lllllllllllllllllllllllllllllll$K",
"$lllllllllllllllllllllllllllllll$K",
"$lllllllllllllllllllllllllllllll$K",
"$lllllllllllllllllllllllllllllll$L",
"#eMMMMMMMMMMMMMMMMMMMMMMMMMMMMMuNO",
"l-eMMMMMMMMMMMMMMMMMMMMMMMMMMMu-lO",
"PMN$$$$$$$$$$$$$$$$$$$$$$$$$$$NMPO",
"QRSTTTTTTTTTTTTTTTTTTTTTTTTTTTSRQQ",
"UUUUUUUUUUUUUUUUUUUUUUUUUUUUUUUUUU"};
