/* XPM */
static char * close_prelight_xpm[] = {
"34 36 91 1",
" 	c None",
".	c #424949",
"+	c #404646",
"@	c #2D3131",
"#	c #1F2222",
"$	c #1C1F1F",
"%	c #424848",
"&	c #2C3232",
"*	c #2E3333",
"=	c #5F6767",
"-	c #6A7272",
";	c #2E3434",
">	c #414848",
",	c #1F2323",
"'	c #596060",
")	c #596262",
"!	c #586161",
"~	c #576060",
"{	c #565F5F",
"]	c #545D5D",
"^	c #414747",
"/	c #525B5B",
"(	c #505858",
"_	c #404747",
":	c #4E5656",
"<	c #4C5454",
"[	c #4B5252",
"}	c #495050",
"|	c #474E4E",
"1	c #484F4F",
"2	c #3F4646",
"3	c #464D4D",
"4	c #262929",
"5	c #242727",
"6	c #252929",
"7	c #242828",
"8	c #454C4C",
"9	c #444B4B",
"0	c #A7A8A7",
"a	c #A4A4A2",
"b	c #434A4A",
"c	c #9D9D9C",
"d	c #ADADAC",
"e	c #242827",
"f	c #ADAEAD",
"g	c #EEEEEC",
"h	c #A3A4A2",
"i	c #1A1C1B",
"j	c #B2B3B2",
"k	c #474E4D",
"l	c #3F4545",
"m	c #B1B4B3",
"n	c #D4D4D2",
"o	c #AFB1B0",
"p	c #B3B6B4",
"q	c #3E4545",
"r	c #262A29",
"s	c #252827",
"t	c #212525",
"u	c #222626",
"v	c #3E4444",
"w	c #A5A6A5",
"x	c #DADBD9",
"y	c #A4A5A4",
"z	c #434949",
"A	c #B6B8B7",
"B	c #B3B5B3",
"C	c #454B4A",
"D	c #AEB1B0",
"E	c #BBBCBB",
"F	c #3D4444",
"G	c #444B4A",
"H	c #3D4343",
"I	c #3C4343",
"J	c #3C4242",
"K	c #3B4242",
"L	c #3B4141",
"M	c #3A4040",
"N	c #363C3C",
"O	c #363B3B",
"P	c #1F2121",
"Q	c #2C3131",
"R	c #232828",
"S	c #353B3B",
"T	c #393F3F",
"U	c #353A3A",
"V	c #414646",
"W	c #2D3232",
"X	c #3A4141",
"Y	c #494F4F",
"Z	c #4B5151",
"..................................",
"+@#$$$$$$$$$$$$$$$$$$$$$$$$$$$#@+%",
"&*=---------------------------=;&>",
",')!!!!!!!!!!!!!!!!!!!!!!!!!!!)'#>",
"$~{{{{{{{{{{{{{{{{{{{{{{{{{{{{{~$>",
"$]]]]]]]]]]]]]]]]]]]]]]]]]]]]]]]$^",
"$///////////////////////////////$^",
"$((((((((((((((((((((((((((((((($_",
"$:::::::::::::::::::::::::::::::$_",
"$<<<<<<<<<<<<<<<<<<<<<<<<<<<<<<<$_",
"$[[[[[[[[[[[[[[[[[[[[[[[[[[[[[[[$+",
"$}}}}}}}}}}}}|1}}}1|}}}}}}}}}}}}$2",
"$|||||||||||3453|3678|||||||||||$2",
"$8888888888950a5b7cdeb8888888888$2",
"$bbbbbbbbbb8fgghicggjkbbbbbbbbbb$l",
"$..........9mgggngggm9..........$l",
"$...........9ogggggp9...........$q",
"$>>>>>>>>>>>_rngggns_>>>>>>>>>>>$q",
"$>>>>>>>>>>_tcggggghu_>>>>>>>>>>$v",
"$__________>wgggxgggy___________$v",
"$++++++++++zAggBCDggEC++++++++++$F",
"$22222222222.AB%2>DEG22222222222$F",
"$llllllllllllz^lll^zllllllllllll$H",
"$qqqqqqqqqqqqqqqqqqqqqqqqqqqqqqq$H",
"$vvvvvvvvvvvvvvvvvvvvvvvvvvvvvvv$H",
"$HHHHHHHHHHHHHHHHHHHHHHHHHHHHHHH$I",
"$IIIIIIIIIIIIIIIIIIIIIIIIIIIIIII$J",
"$JJJJJJJJJJJJJJJJJJJJJJJJJJJJJJJ$J",
"$KKKKKKKKKKKKKKKKKKKKKKKKKKKKKKK$J",
"$LLLLLLLLLLLLLLLLLLLLLLLLLLLLLLL$J",
"$MMMMMMMMMMMMMMMMMMMMMMMMMMMMMMM$K",
"#NMMMMMMMMMMMMMMMMMMMMMMMMMMMMMOPL",
"QRSTTTTTTTTTTTTTTTTTTTTTTTTTTTU5QL",
"VWP$$$$$$$$$$$$$$$$$$$$$$$$$$$PWVL",
"XzYZZZZZZZZZZZZZZZZZZZZZZZZZZZYzXX",
"MMMMMMMMMMMMMMMMMMMMMMMMMMMMMMMMMM"};
