/* XPM */
static char * hide_pressed_xpm[] = {
"34 36 35 1",
" 	c None",
".	c #424949",
"+	c #404646",
"@	c #2D3131",
"#	c #1F2222",
"$	c #1C1F1F",
"%	c #2C3232",
"&	c #1D2020",
"*	c #1E2323",
"=	c #202424",
"-	c #1C2121",
";	c #1F2323",
">	c #212424",
",	c #232727",
"'	c #242828",
")	c #252929",
"!	c #262A2A",
"~	c #272B2B",
"{	c #282C2C",
"]	c #292D2D",
"^	c #2A2E2E",
"/	c #040505",
"(	c #EDEDEB",
"_	c #2A2F2F",
":	c #EEEEEC",
"<	c #2B2F2F",
"[	c #2B3030",
"}	c #2C3030",
"|	c #2C3131",
"1	c #2D3232",
"2	c #1F2121",
"3	c #3A4040",
"4	c #434848",
"5	c #494E4E",
"6	c #4B5050",
"..................................",
"+@#$$$$$$$$$$$$$$$$$$$$$$$$$$$$#@+",
"%&*============================*-%",
";>,'''''''''''''''''''''''''''',>#",
"$,'''''''''''''''''''''''''''''',$",
"$))))))))))))))))))))))))))))))))$",
"$))))))))))))))))))))))))))))))))$",
"$!!!!!!!!!!!!!!!!!!!!!!!!!!!!!!!!$",
"$!!!!!!!!!!!!!!!!!!!!!!!!!!!!!!!!$",
"$~~~~~~~~~~~~~~~~~~~~~~~~~~~~~~~~$",
"$~~~~~~~~~~~~~~~~~~~~~~~~~~~~~~~~$",
"$~~~~~~~~~~~~~~~~~~~~~~~~~~~~~~~~$",
"${{{{{{{{{{{{{{{{{{{{{{{{{{{{{{{{$",
"${{{{{{{{{{{{{{{{{{{{{{{{{{{{{{{{$",
"$]]]]]]]]]]]]]]]]]]]]]]]]]]]]]]]]$",
"$]]]]]]]]]]]]]]]]]]]]]]]]]]]]]]]]$",
"$]]]]]]]]]]]]]]]]]]]]]]]]]]]]]]]]$",
"$^^^^^^^^^^^^^^^^^^^^^^^^^^^^^^^^$",
"$^^^^^^^^^^^^^^^^^^^^^^^^^^^^^^^^$",
"$^^^^^^^^^^^^////////^^^^^^^^^^^^$",
"$^^^^^^^^^^^^((((((((^^^^^^^^^^^^$",
"$____________::::::::____________$",
"$<<<<<<<<<<<<<<<<<<<<<<<<<<<<<<<<$",
"$<<<<<<<<<<<<<<<<<<<<<<<<<<<<<<<<$",
"$[[[[[[[[[[[[[[[[[[[[[[[[[[[[[[[[$",
"$[[[[[[[[[[[[[[[[[[[[[[[[[[[[[[[[$",
"$[[[[[[[[[[[[[[[[[[[[[[[[[[[[[[[[$",
"$}}}}}}}}}}}}}}}}}}}}}}}}}}}}}}}}$",
"$||||||||||||||||||||||||||||||||$",
"$||||||||||||||||||||||||||||||||$",
"$||||||||||||||||||||||||||||||||$",
"$||||||||||||||||||||||||||||||||$",
"#<111111111111111111111111111111_2",
"|=<1111111111111111111111111111_=|",
"+%2$$$$$$$$$$$$$$$$$$$$$$$$$$$$2%+",
"3456666666666666666666666666666543"};
