/* XPM */
static char * maximize_pressed_xpm[] = {
"34 36 35 1",
" 	c None",
".	c #424949",
"+	c #404646",
"@	c #2D3131",
"#	c #1F2222",
"$	c #1C1F1F",
"%	c #2C3232",
"&	c #1D2020",
"*	c #1E2323",
"=	c #202424",
"-	c #1C2121",
";	c #1F2323",
">	c #212424",
",	c #232727",
"'	c #242828",
")	c #252929",
"!	c #262A2A",
"~	c #272B2B",
"{	c #282C2C",
"]	c #040404",
"^	c #292D2D",
"/	c #EEEEEC",
"(	c #2A2E2E",
"_	c #040505",
":	c #2A2F2F",
"<	c #2B2F2F",
"[	c #2B3030",
"}	c #2C3030",
"|	c #2C3131",
"1	c #2D3232",
"2	c #1F2121",
"3	c #3A4040",
"4	c #434848",
"5	c #494E4E",
"6	c #4B5050",
"..................................",
"+@#$$$$$$$$$$$$$$$$$$$$$$$$$$$$#@+",
"%&*============================*-%",
";>,'''''''''''''''''''''''''''',>#",
"$,'''''''''''''''''''''''''''''',$",
"$))))))))))))))))))))))))))))))))$",
"$))))))))))))))))))))))))))))))))$",
"$!!!!!!!!!!!!!!!!!!!!!!!!!!!!!!!!$",
"$!!!!!!!!!!!!!!!!!!!!!!!!!!!!!!!!$",
"$~~~~~~~~~~~~~~~~~~~~~~~~~~~~~~~~$",
"$~~~~~~~~~~~~~~~~~~~~~~~~~~~~~~~~$",
"$~~~~~~~~~~~~~~~~~~~~~~~~~~~~~~~~$",
"${{{{{{{{{{{{{{{{{{{{{{{{{{{{{{{{$",
"${{{{{{{{{{{{]]]]]]]]{{{{{{{{{{{{$",
"$^^^^^^^^^^^^////////^^^^^^^^^^^^$",
"$^^^^^^^^^^^^////////^^^^^^^^^^^^$",
"$^^^^^^^^^^^^//^^^^//^^^^^^^^^^^^$",
"$((((((((((((//((((//(((((((((((($",
"$((((((((((((//((((//(((((((((((($",
"$((((((((((((//____//(((((((((((($",
"$((((((((((((////////(((((((((((($",
"$::::::::::::////////::::::::::::$",
"$<<<<<<<<<<<<<<<<<<<<<<<<<<<<<<<<$",
"$<<<<<<<<<<<<<<<<<<<<<<<<<<<<<<<<$",
"$[[[[[[[[[[[[[[[[[[[[[[[[[[[[[[[[$",
"$[[[[[[[[[[[[[[[[[[[[[[[[[[[[[[[[$",
"$[[[[[[[[[[[[[[[[[[[[[[[[[[[[[[[[$",
"$}}}}}}}}}}}}}}}}}}}}}}}}}}}}}}}}$",
"$||||||||||||||||||||||||||||||||$",
"$||||||||||||||||||||||||||||||||$",
"$||||||||||||||||||||||||||||||||$",
"$||||||||||||||||||||||||||||||||$",
"#<111111111111111111111111111111:2",
"|=<1111111111111111111111111111:=|",
"+%2$$$$$$$$$$$$$$$$$$$$$$$$$$$$2%+",
"3456666666666666666666666666666543"};
