/* XPM */
static char * maximize_prelight_xpm[] = {
"34 36 57 1",
" 	c None",
".	c #424949",
"+	c #404646",
"@	c #2D3131",
"#	c #1F2222",
"$	c #1C1F1F",
"%	c #2C3232",
"&	c #2E3333",
"*	c #5F6767",
"=	c #6A7272",
"-	c #2E3434",
";	c #1F2323",
">	c #596060",
",	c #596262",
"'	c #586161",
")	c #576060",
"!	c #565F5F",
"~	c #545D5D",
"{	c #535B5B",
"]	c #515959",
"^	c #4F5757",
"/	c #4D5555",
"(	c #4B5353",
"_	c #495151",
":	c #474F4F",
"<	c #454D4D",
"[	c #0F1111",
"}	c #444B4B",
"|	c #EEEEEC",
"1	c #434A4A",
"2	c #424848",
"3	c #414848",
"4	c #414747",
"5	c #0E0F0F",
"6	c #404747",
"7	c #3F4646",
"8	c #3E4545",
"9	c #3E4444",
"0	c #3D4444",
"a	c #3D4343",
"b	c #3C4343",
"c	c #3C4242",
"d	c #3B4242",
"e	c #3B4141",
"f	c #3A4040",
"g	c #363C3C",
"h	c #363B3B",
"i	c #1F2121",
"j	c #2C3131",
"k	c #232828",
"l	c #353B3B",
"m	c #393F3F",
"n	c #353A3A",
"o	c #242727",
"p	c #434848",
"q	c #494E4E",
"r	c #4B5050",
"..................................",
"+@#$$$$$$$$$$$$$$$$$$$$$$$$$$$$#@+",
"%&*============================*-%",
";>,'''''''''''''''''''''''''''',>#",
"$)!!!!!!!!!!!!!!!!!!!!!!!!!!!!!!)$",
"$~~~~~~~~~~~~~~~~~~~~~~~~~~~~~~~~$",
"${{{{{{{{{{{{{{{{{{{{{{{{{{{{{{{{$",
"$]]]]]]]]]]]]]]]]]]]]]]]]]]]]]]]]$",
"$^^^^^^^^^^^^^^^^^^^^^^^^^^^^^^^^$",
"$////////////////////////////////$",
"$(((((((((((((((((((((((((((((((($",
"$________________________________$",
"$::::::::::::::::::::::::::::::::$",
"$<<<<<<<<<<<<[[[[[[[[<<<<<<<<<<<<$",
"$}}}}}}}}}}}}||||||||}}}}}}}}}}}}$",
"$111111111111||||||||111111111111$",
"$............||....||............$",
"$222222222222||2222||222222222222$",
"$333333333333||3333||333333333333$",
"$444444444444||5555||444444444444$",
"$666666666666||||||||666666666666$",
"$++++++++++++||||||||++++++++++++$",
"$77777777777777777777777777777777$",
"$88888888888888888888888888888888$",
"$99999999999999999999999999999999$",
"$00000000000000000000000000000000$",
"$aaaaaaaaaaaaaaaaaaaaaaaaaaaaaaaa$",
"$bbbbbbbbbbbbbbbbbbbbbbbbbbbbbbbb$",
"$cccccccccccccccccccccccccccccccc$",
"$dddddddddddddddddddddddddddddddd$",
"$eeeeeeeeeeeeeeeeeeeeeeeeeeeeeeee$",
"$ffffffffffffffffffffffffffffffff$",
"#gffffffffffffffffffffffffffffffhi",
"jklmmmmmmmmmmmmmmmmmmmmmmmmmmmmnoj",
"+%i$$$$$$$$$$$$$$$$$$$$$$$$$$$$i%+",
"fpqrrrrrrrrrrrrrrrrrrrrrrrrrrrrqpf"};
