/* XPM */
static char * menu_pressed_xpm[] = {
"34 36 36 1",
" 	c None",
".	c #424949",
"+	c #404646",
"@	c #2D3131",
"#	c #1F2222",
"$	c #1C1F1F",
"%	c #2C3232",
"&	c #1D2020",
"*	c #1E2323",
"=	c #202424",
"-	c #1C2121",
";	c #1F2323",
">	c #212424",
",	c #232727",
"'	c #242828",
")	c #252929",
"!	c #262A2A",
"~	c #272B2B",
"{	c #282C2C",
"]	c #0F1111",
"^	c #EEEEEC",
"/	c #292D2D",
"(	c #0E1010",
"_	c #2A2E2E",
":	c #0E0F0F",
"<	c #2A2F2F",
"[	c #2B2F2F",
"}	c #2B3030",
"|	c #2C3030",
"1	c #2C3131",
"2	c #2D3232",
"3	c #1F2121",
"4	c #3A4040",
"5	c #434848",
"6	c #494E4E",
"7	c #4B5050",
"..................................",
"+@#$$$$$$$$$$$$$$$$$$$$$$$$$$$$#@+",
"%&*============================*-%",
";>,'''''''''''''''''''''''''''',>#",
"$,'''''''''''''''''''''''''''''',$",
"$))))))))))))))))))))))))))))))))$",
"$))))))))))))))))))))))))))))))))$",
"$!!!!!!!!!!!!!!!!!!!!!!!!!!!!!!!!$",
"$!!!!!!!!!!!!!!!!!!!!!!!!!!!!!!!!$",
"$~~~~~~~~~~~~~~~~~~~~~~~~~~~~~~~~$",
"$~~~~~~~~~~~~~~~~~~~~~~~~~~~~~~~~$",
"$~~~~~~~~~~~~~~~~~~~~~~~~~~~~~~~~$",
"${{{{{{{{{{{]]]]]]]]]]{{{{{{{{{{{$",
"${{{{{{{{{{{^^^^^^^^^^{{{{{{{{{{{$",
"$///////////^^^^^^^^^^///////////$",
"$////////////////////////////////$",
"$///////////((((((((((///////////$",
"$___________^^^^^^^^^^___________$",
"$___________^^^^^^^^^^___________$",
"$________________________________$",
"$___________::::::::::___________$",
"$<<<<<<<<<<<^^^^^^^^^^<<<<<<<<<<<$",
"$[[[[[[[[[[[^^^^^^^^^^[[[[[[[[[[[$",
"$[[[[[[[[[[[[[[[[[[[[[[[[[[[[[[[[$",
"$}}}}}}}}}}}}}}}}}}}}}}}}}}}}}}}}$",
"$}}}}}}}}}}}}}}}}}}}}}}}}}}}}}}}}$",
"$}}}}}}}}}}}}}}}}}}}}}}}}}}}}}}}}$",
"$||||||||||||||||||||||||||||||||$",
"$11111111111111111111111111111111$",
"$11111111111111111111111111111111$",
"$11111111111111111111111111111111$",
"$11111111111111111111111111111111$",
"#[222222222222222222222222222222<3",
"1=[2222222222222222222222222222<=1",
"+%3$$$$$$$$$$$$$$$$$$$$$$$$$$$$3%+",
"4567777777777777777777777777777654"};
