/* XPM */
static char * menu_inactive_xpm[] = {
"34 36 4 1",
" 	c None",
".	c #393F3F",
"+	c #929594",
"@	c #939695",
"..................................",
"..................................",
"..................................",
"..................................",
"..................................",
"..................................",
"..................................",
"..................................",
"..................................",
"..................................",
"..................................",
"..................................",
"............++++++++++............",
"............@@@@@@@@@@............",
"..................................",
"..................................",
"............++++++++++............",
"............@@@@@@@@@@............",
"..................................",
"..................................",
"............++++++++++............",
"............@@@@@@@@@@............",
"..................................",
"..................................",
"..................................",
"..................................",
"..................................",
"..................................",
"..................................",
"..................................",
"..................................",
"..................................",
"..................................",
"..................................",
"..................................",
".................................."};
