/* XPM */
static char * menu_prelight_xpm[] = {
"34 36 58 1",
" 	c None",
".	c #424949",
"+	c #404646",
"@	c #2D3131",
"#	c #1F2222",
"$	c #1C1F1F",
"%	c #2C3232",
"&	c #2E3333",
"*	c #5F6767",
"=	c #6A7272",
"-	c #2E3434",
";	c #1F2323",
">	c #596060",
",	c #596262",
"'	c #586161",
")	c #576060",
"!	c #565F5F",
"~	c #545D5D",
"{	c #535B5B",
"]	c #515959",
"^	c #4F5757",
"/	c #4D5555",
"(	c #4B5353",
"_	c #495151",
":	c #474F4F",
"<	c #0F1111",
"[	c #454D4D",
"}	c #EEEEEC",
"|	c #444B4B",
"1	c #434A4A",
"2	c #0E1010",
"3	c #424848",
"4	c #414848",
"5	c #414747",
"6	c #404747",
"7	c #0E0F0F",
"8	c #3F4646",
"9	c #3E4545",
"0	c #3E4444",
"a	c #3D4444",
"b	c #3D4343",
"c	c #3C4343",
"d	c #3C4242",
"e	c #3B4242",
"f	c #3B4141",
"g	c #3A4040",
"h	c #363C3C",
"i	c #363B3B",
"j	c #1F2121",
"k	c #2C3131",
"l	c #232828",
"m	c #353B3B",
"n	c #393F3F",
"o	c #353A3A",
"p	c #242727",
"q	c #434848",
"r	c #494E4E",
"s	c #4B5050",
"..................................",
"+@#$$$$$$$$$$$$$$$$$$$$$$$$$$$$#@+",
"%&*============================*-%",
";>,'''''''''''''''''''''''''''',>#",
"$)!!!!!!!!!!!!!!!!!!!!!!!!!!!!!!)$",
"$~~~~~~~~~~~~~~~~~~~~~~~~~~~~~~~~$",
"${{{{{{{{{{{{{{{{{{{{{{{{{{{{{{{{$",
"$]]]]]]]]]]]]]]]]]]]]]]]]]]]]]]]]$",
"$^^^^^^^^^^^^^^^^^^^^^^^^^^^^^^^^$",
"$////////////////////////////////$",
"$(((((((((((((((((((((((((((((((($",
"$________________________________$",
"$:::::::::::<<<<<<<<<<:::::::::::$",
"$[[[[[[[[[[[}}}}}}}}}}[[[[[[[[[[[$",
"$|||||||||||}}}}}}}}}}|||||||||||$",
"$11111111111111111111111111111111$",
"$...........2222222222...........$",
"$33333333333}}}}}}}}}}33333333333$",
"$44444444444}}}}}}}}}}44444444444$",
"$55555555555555555555555555555555$",
"$66666666666777777777766666666666$",
"$+++++++++++}}}}}}}}}}+++++++++++$",
"$88888888888}}}}}}}}}}88888888888$",
"$99999999999999999999999999999999$",
"$00000000000000000000000000000000$",
"$aaaaaaaaaaaaaaaaaaaaaaaaaaaaaaaa$",
"$bbbbbbbbbbbbbbbbbbbbbbbbbbbbbbbb$",
"$cccccccccccccccccccccccccccccccc$",
"$dddddddddddddddddddddddddddddddd$",
"$eeeeeeeeeeeeeeeeeeeeeeeeeeeeeeee$",
"$ffffffffffffffffffffffffffffffff$",
"$gggggggggggggggggggggggggggggggg$",
"#hggggggggggggggggggggggggggggggij",
"klmnnnnnnnnnnnnnnnnnnnnnnnnnnnnopk",
"+%j$$$$$$$$$$$$$$$$$$$$$$$$$$$$j%+",
"gqrssssssssssssssssssssssssssssrqg"};
