/* XPM */
static char * menu_active_xpm[] = {
"34 36 22 1",
" 	c None",
".	c #424848",
"+	c #414848",
"@	c #414747",
"#	c #404747",
"$	c #404646",
"%	c #3F4646",
"&	c #0F1111",
"*	c #3E4444",
"=	c #EEEEEC",
"-	c #3F4545",
";	c #3E4545",
">	c #0E1010",
",	c #3D4343",
"'	c #3F4444",
")	c #3D4444",
"!	c #0E0F0F",
"~	c #3C4343",
"{	c #3C4242",
"]	c #3B4242",
"^	c #3B4141",
"/	c #3A4141",
"                                  ",
"..................................",
"++++++++++++++++++++++++++++++++++",
"++++++++++++++++++++++++++++++++++",
"++++++++++++++++++++++++++++++++++",
"@@@@@@@@@@@@@@@@@@@@@@@@@@@@@@@@@@",
"@@@@@@@@@@@@@@@@@@@@@@@@@@@@@@@@@@",
"##################################",
"##################################",
"##################################",
"$$$$$$$$$$$$$$$$$$$$$$$$$$$$$$$$$$",
"%%%%%%%%%%%%%%%%%%%%%%%%%%%%%%%%%%",
"%%%%%%%%%%%%&&&&&&&&&&%%%%%%%%%%%%",
"%%%%%%%%%%%*==========%%%%%%%%%%%%",
"-----------@==========------------",
"-----------@---------@------------",
";;;;;;;;;;;;>>>>>>>>>>;;;;;;;;;;;;",
";;;;;;;;;;;;==========;;;;;;;;;;;;",
"***********,==========************",
"***********'**********************",
")))))))))))#!!!!!!!!!!))))))))))))",
"))))))))))))==========))))))))))))",
",,,,,,,,,,,,==========,,,,,,,,,,,,",
",,,,,,,,,,,,,,,,,,,,,,,,,,,,,,,,,,",
",,,,,,,,,,,,,,,,,,,,,,,,,,,,,,,,,,",
"~~~~~~~~~~~~~~~~~~~~~~~~~~~~~~~~~~",
"{{{{{{{{{{{{{{{{{{{{{{{{{{{{{{{{{{",
"{{{{{{{{{{{{{{{{{{{{{{{{{{{{{{{{{{",
"{{{{{{{{{{{{{{{{{{{{{{{{{{{{{{{{{{",
"{{{{{{{{{{{{{{{{{{{{{{{{{{{{{{{{{{",
"]]]]]]]]]]]]]]]]]]]]]]]]]]]]]]]]]]",
"^^^^^^^^^^^^^^^^^^^^^^^^^^^^^^^^^^",
"^^^^^^^^^^^^^^^^^^^^^^^^^^^^^^^^^^",
"^^^^^^^^^^^^^^^^^^^^^^^^^^^^^^^^^^",
"//////////////////////////////////",
"                                  "};
