/* XPM */
static char * shade_active_xpm[] = {
"34 36 27 1",
" 	c None",
".	c #424848",
"+	c #414848",
"@	c #414747",
"#	c #404747",
"$	c #404646",
"%	c #3F4646",
"&	c #3E4444",
"*	c #3E4545",
"=	c #212424",
"-	c #1F2222",
";	c #3F4545",
">	c #202323",
",	c #A6A7A6",
"'	c #A3A3A1",
")	c #ACADAC",
"!	c #EEEEEC",
"~	c #171918",
"{	c #B0B2B1",
"]	c #D4D4D2",
"^	c #3D4444",
"/	c #ADB0AF",
"(	c #3D4343",
"_	c #3C4343",
":	c #3C4242",
"<	c #3B4242",
"[	c #3B4141",
"                                  ",
"..................................",
"++++++++++++++++++++++++++++++++++",
"++++++++++++++++++++++++++++++++++",
"++++++++++++++++++++++++++++++++++",
"@@@@@@@@@@@@@@@@@@@@@@@@@@@@@@@@@@",
"@@@@@@@@@@@@@@@@@@@@@@@@@@@@@@@@@@",
"##################################",
"##################################",
"##################################",
"$$$$$$$$$$$$$$$$$$$$$$$$$$$$$$$$$$",
"%%%%%%%%%%%%%&*%%%*&%%%%%%%%%%%%%%",
"%%%%%%%%%%%%%%%%%%%%%%%%%%%%%%%%%%",
"%%%%%%%%%%%%%=-%%%%-=%%%%%%%%%%%%%",
";;;;;;;;;;;;>,'>;;>',>;;;;;;;;;;;;",
";;;;;;;;;;;@)!!'~~'!!);;;;;;;;;;;;",
"************{!!!]]!!!{************",
"*************{!!!!!!{*************",
"&&&&&&&&&&&&&&{!!!!{&&&&&&&&&&&&&&",
"&&&&&&&&&&&&&&&{!!{&&&&&&&&&&&&&&&",
"^^^^^^^^^^^^^^^^//^^^^^^^^^^^^^^^^",
"^^^^^^^^^^^^^^^^^^^^^^^^^^^^^^^^^^",
"((((((((((((((((((((((((((((((((((",
"((((((((((((((((((((((((((((((((((",
"((((((((((((((((((((((((((((((((((",
"__________________________________",
"::::::::::::::::::::::::::::::::::",
"::::::::::::::::::::::::::::::::::",
"::::::::::::::::::::::::::::::::::",
"::::::::::::::::::::::::::::::::::",
"<<<<<<<<<<<<<<<<<<<<<<<<<<<<<<<<<<",
"[[[[[[[[[[[[[[[[[[[[[[[[[[[[[[[[[[",
"[[[[[[[[[[[[[[[[[[[[[[[[[[[[[[[[[[",
"[[[[[[[[[[[[[[[[[[[[[[[[[[[[[[[[[[",
"[[[[[[[[[[[[[[[[[[[[[[[[[[[[[[[[[[",
"                                  "};
