/* XPM */
static char * shade_toggled_inactive_xpm[] = {
"34 36 11 1",
" 	c None",
".	c #393F3F",
"+	c #3A4141",
"@	c #3A4040",
"#	c #727675",
"$	c #939695",
"%	c #3B4141",
"&	c #747877",
"*	c #888C8B",
"=	c #777A79",
"-	c #757978",
"..................................",
"..................................",
"..................................",
"..................................",
"..................................",
"..................................",
"..................................",
"..................................",
"..................................",
"..................................",
"..................................",
"..................................",
".............+@....@+.............",
"..................................",
"...........@.+@....@+.@...........",
"...........@....##....@...........",
"...............#$$#...............",
".............%#$$$$#%.............",
"............@#$$$$$$#@............",
"............&$$$**$$$&............",
"............=$$-%%-$$=............",
"............@=-@..@-=@............",
"..................................",
"..................................",
"..................................",
"..................................",
"..................................",
"..................................",
"..................................",
"..................................",
"..................................",
"..................................",
"..................................",
"..................................",
"..................................",
".................................."};
