/* XPM */
static char * shade_pressed_xpm[] = {
"34 36 41 1",
" 	c None",
".	c #424949",
"+	c #404646",
"@	c #2D3131",
"#	c #1F2222",
"$	c #1C1F1F",
"%	c #2C3232",
"&	c #1D2020",
"*	c #1E2323",
"=	c #202424",
"-	c #1C2121",
";	c #1F2323",
">	c #212424",
",	c #232727",
"'	c #242828",
")	c #252929",
"!	c #262A2A",
"~	c #272B2B",
"{	c #282C2C",
"]	c #292D2D",
"^	c #202323",
"/	c #A6A7A6",
"(	c #A3A3A1",
"_	c #ACADAC",
":	c #EEEEEC",
"<	c #171918",
"[	c #B0B2B1",
"}	c #D4D4D2",
"|	c #2A2E2E",
"1	c #ADB0AF",
"2	c #2A2F2F",
"3	c #2B2F2F",
"4	c #2B3030",
"5	c #2C3030",
"6	c #2C3131",
"7	c #2D3232",
"8	c #1F2121",
"9	c #3A4040",
"0	c #434848",
"a	c #494E4E",
"b	c #4B5050",
"..................................",
"+@#$$$$$$$$$$$$$$$$$$$$$$$$$$$$#@+",
"%&*============================*-%",
";>,'''''''''''''''''''''''''''',>#",
"$,'''''''''''''''''''''''''''''',$",
"$))))))))))))))))))))))))))))))))$",
"$))))))))))))))))))))))))))))))))$",
"$!!!!!!!!!!!!!!!!!!!!!!!!!!!!!!!!$",
"$!!!!!!!!!!!!!!!!!!!!!!!!!!!!!!!!$",
"$~~~~~~~~~~~~~~~~~~~~~~~~~~~~~~~~$",
"$~~~~~~~~~~~~~~~~~~~~~~~~~~~~~~~~$",
"$~~~~~~~~~~~~~~~~~~~~~~~~~~~~~~~~$",
"${{{{{{{{{{{{{{{{{{{{{{{{{{{{{{{{$",
"${{{{{{{{{{{{>#{{{{#>{{{{{{{{{{{{$",
"$]]]]]]]]]]]^/(^]]^(/^]]]]]]]]]]]$",
"$]]]]]]]]]]]_::(<<(::_]]]]]]]]]]]$",
"$]]]]]]]]]]][:::}}:::[]]]]]]]]]]]$",
"$||||||||||||[::::::[||||||||||||$",
"$|||||||||||||[::::[|||||||||||||$",
"$||||||||||||||[::[||||||||||||||$",
"$|||||||||||||||11|||||||||||||||$",
"$22222222222222222222222222222222$",
"$33333333333333333333333333333333$",
"$33333333333333333333333333333333$",
"$44444444444444444444444444444444$",
"$44444444444444444444444444444444$",
"$44444444444444444444444444444444$",
"$55555555555555555555555555555555$",
"$66666666666666666666666666666666$",
"$66666666666666666666666666666666$",
"$66666666666666666666666666666666$",
"$66666666666666666666666666666666$",
"#377777777777777777777777777777728",
"6=377777777777777777777777777772=6",
"+%8$$$$$$$$$$$$$$$$$$$$$$$$$$$$8%+",
"90abbbbbbbbbbbbbbbbbbbbbbbbbbbba09"};
