/* XPM */
static char * shade_prelight_xpm[] = {
"34 36 64 1",
" 	c None",
".	c #424949",
"+	c #404646",
"@	c #2D3131",
"#	c #1F2222",
"$	c #1C1F1F",
"%	c #2C3232",
"&	c #2E3333",
"*	c #5F6767",
"=	c #6A7272",
"-	c #2E3434",
";	c #1F2323",
">	c #596060",
",	c #596262",
"'	c #586161",
")	c #576060",
"!	c #565F5F",
"~	c #545D5D",
"{	c #535B5B",
"]	c #515959",
"^	c #4F5757",
"/	c #4D5555",
"(	c #4B5353",
"_	c #495151",
":	c #474F4F",
"<	c #454D4D",
"[	c #212424",
"}	c #444B4B",
"|	c #202323",
"1	c #A6A7A6",
"2	c #A3A3A1",
"3	c #434A4A",
"4	c #ACADAC",
"5	c #EEEEEC",
"6	c #171918",
"7	c #B0B2B1",
"8	c #D4D4D2",
"9	c #424848",
"0	c #414848",
"a	c #414747",
"b	c #404747",
"c	c #ADB0AF",
"d	c #3F4646",
"e	c #3E4545",
"f	c #3E4444",
"g	c #3D4444",
"h	c #3D4343",
"i	c #3C4343",
"j	c #3C4242",
"k	c #3B4242",
"l	c #3B4141",
"m	c #3A4040",
"n	c #363C3C",
"o	c #363B3B",
"p	c #1F2121",
"q	c #2C3131",
"r	c #232828",
"s	c #353B3B",
"t	c #393F3F",
"u	c #353A3A",
"v	c #242727",
"w	c #434848",
"x	c #494E4E",
"y	c #4B5050",
"..................................",
"+@#$$$$$$$$$$$$$$$$$$$$$$$$$$$$#@+",
"%&*============================*-%",
";>,'''''''''''''''''''''''''''',>#",
"$)!!!!!!!!!!!!!!!!!!!!!!!!!!!!!!)$",
"$~~~~~~~~~~~~~~~~~~~~~~~~~~~~~~~~$",
"${{{{{{{{{{{{{{{{{{{{{{{{{{{{{{{{$",
"$]]]]]]]]]]]]]]]]]]]]]]]]]]]]]]]]$",
"$^^^^^^^^^^^^^^^^^^^^^^^^^^^^^^^^$",
"$////////////////////////////////$",
"$(((((((((((((((((((((((((((((((($",
"$________________________________$",
"$::::::::::::::::::::::::::::::::$",
"$<<<<<<<<<<<<[#<<<<#[<<<<<<<<<<<<$",
"$}}}}}}}}}}}|12|}}|21|}}}}}}}}}}}$",
"$33333333333455266255433333333333$",
"$...........7555885557...........$",
"$99999999999975555557999999999999$",
"$00000000000007555570000000000000$",
"$aaaaaaaaaaaaaa7557aaaaaaaaaaaaaa$",
"$bbbbbbbbbbbbbbbccbbbbbbbbbbbbbbb$",
"$++++++++++++++++++++++++++++++++$",
"$dddddddddddddddddddddddddddddddd$",
"$eeeeeeeeeeeeeeeeeeeeeeeeeeeeeeee$",
"$ffffffffffffffffffffffffffffffff$",
"$gggggggggggggggggggggggggggggggg$",
"$hhhhhhhhhhhhhhhhhhhhhhhhhhhhhhhh$",
"$iiiiiiiiiiiiiiiiiiiiiiiiiiiiiiii$",
"$jjjjjjjjjjjjjjjjjjjjjjjjjjjjjjjj$",
"$kkkkkkkkkkkkkkkkkkkkkkkkkkkkkkkk$",
"$llllllllllllllllllllllllllllllll$",
"$mmmmmmmmmmmmmmmmmmmmmmmmmmmmmmmm$",
"#nmmmmmmmmmmmmmmmmmmmmmmmmmmmmmmop",
"qrsttttttttttttttttttttttttttttuvq",
"+%p$$$$$$$$$$$$$$$$$$$$$$$$$$$$p%+",
"mwxyyyyyyyyyyyyyyyyyyyyyyyyyyyyxwm"};
