/* XPM */
static char * shade_toggled_pressed_xpm[] = {
"34 36 39 1",
" 	c None",
".	c #424949",
"+	c #404646",
"@	c #2D3131",
"#	c #1F2222",
"$	c #1C1F1F",
"%	c #2C3232",
"&	c #1D2020",
"*	c #1E2323",
"=	c #202424",
"-	c #1C2121",
";	c #1F2323",
">	c #212424",
",	c #232727",
"'	c #242828",
")	c #252929",
"!	c #262A2A",
"~	c #272B2B",
"{	c #282C2C",
"]	c #292D2D",
"^	c #242726",
"/	c #9B9C9B",
"(	c #EEEEEC",
"_	c #2A2E2E",
":	c #A4A5A4",
"<	c #DADAD8",
"[	c #B5B7B6",
"}	c #B2B4B2",
"|	c #2A2F2F",
"1	c #2B2F2F",
"2	c #2B3030",
"3	c #2C3030",
"4	c #2C3131",
"5	c #2D3232",
"6	c #1F2121",
"7	c #3A4040",
"8	c #434848",
"9	c #494E4E",
"0	c #4B5050",
"..................................",
"+@#$$$$$$$$$$$$$$$$$$$$$$$$$$$$#@+",
"%&*============================*-%",
";>,'''''''''''''''''''''''''''',>#",
"$,'''''''''''''''''''''''''''''',$",
"$))))))))))))))))))))))))))))))))$",
"$))))))))))))))))))))))))))))))))$",
"$!!!!!!!!!!!!!!!!!!!!!!!!!!!!!!!!$",
"$!!!!!!!!!!!!!!!!!!!!!!!!!!!!!!!!$",
"$~~~~~~~~~~~~~~~~~~~~~~~~~~~~~~~~$",
"$~~~~~~~~~~~~~~~~~~~~~~~~~~~~~~~~$",
"$~~~~~~~~~~~~~~~~~~~~~~~~~~~~~~~~$",
"${{{{{{{{{{{{{{{{{{{{{{{{{{{{{{{{$",
"${{{{{{{{{{{{{{{{{{{{{{{{{{{{{{{{$",
"$]]]]]]]]]]]]]]]^^]]]]]]]]]]]]]]]$",
"$]]]]]]]]]]]]]]^//^]]]]]]]]]]]]]]$",
"$]]]]]]]]]]]]]^/((/^]]]]]]]]]]]]]$",
"$____________^/((((/^____________$",
"$___________#/((((((/#___________$",
"$___________:(((<<(((:___________$",
"$___________[((}__}(([___________$",
"$||||||||||||[}||||}[||||||||||||$",
"$11111111111111111111111111111111$",
"$11111111111111111111111111111111$",
"$22222222222222222222222222222222$",
"$22222222222222222222222222222222$",
"$22222222222222222222222222222222$",
"$33333333333333333333333333333333$",
"$44444444444444444444444444444444$",
"$44444444444444444444444444444444$",
"$44444444444444444444444444444444$",
"$44444444444444444444444444444444$",
"#1555555555555555555555555555555|6",
"4=15555555555555555555555555555|=4",
"+%6$$$$$$$$$$$$$$$$$$$$$$$$$$$$6%+",
"7890000000000000000000000000000987"};
