/* XPM */
static char * shade_toggled_prelight_xpm[] = {
"34 36 61 1",
" 	c None",
".	c #424949",
"+	c #404646",
"@	c #2D3131",
"#	c #1F2222",
"$	c #1C1F1F",
"%	c #2C3232",
"&	c #2E3333",
"*	c #5F6767",
"=	c #6A7272",
"-	c #2E3434",
";	c #1F2323",
">	c #596060",
",	c #596262",
"'	c #586161",
")	c #576060",
"!	c #565F5F",
"~	c #545D5D",
"{	c #535B5B",
"]	c #515959",
"^	c #4F5757",
"/	c #4D5555",
"(	c #4B5353",
"_	c #495151",
":	c #474F4F",
"<	c #454D4D",
"[	c #444B4B",
"}	c #242726",
"|	c #434A4A",
"1	c #9B9C9B",
"2	c #EEEEEC",
"3	c #424848",
"4	c #414848",
"5	c #414747",
"6	c #A4A5A4",
"7	c #DADAD8",
"8	c #404747",
"9	c #B5B7B6",
"0	c #B2B4B2",
"a	c #3F4646",
"b	c #3E4545",
"c	c #3E4444",
"d	c #3D4444",
"e	c #3D4343",
"f	c #3C4343",
"g	c #3C4242",
"h	c #3B4242",
"i	c #3B4141",
"j	c #3A4040",
"k	c #363C3C",
"l	c #363B3B",
"m	c #1F2121",
"n	c #2C3131",
"o	c #232828",
"p	c #353B3B",
"q	c #393F3F",
"r	c #353A3A",
"s	c #242727",
"t	c #434848",
"u	c #494E4E",
"v	c #4B5050",
"..................................",
"+@#$$$$$$$$$$$$$$$$$$$$$$$$$$$$#@+",
"%&*============================*-%",
";>,'''''''''''''''''''''''''''',>#",
"$)!!!!!!!!!!!!!!!!!!!!!!!!!!!!!!)$",
"$~~~~~~~~~~~~~~~~~~~~~~~~~~~~~~~~$",
"${{{{{{{{{{{{{{{{{{{{{{{{{{{{{{{{$",
"$]]]]]]]]]]]]]]]]]]]]]]]]]]]]]]]]$",
"$^^^^^^^^^^^^^^^^^^^^^^^^^^^^^^^^$",
"$////////////////////////////////$",
"$(((((((((((((((((((((((((((((((($",
"$________________________________$",
"$::::::::::::::::::::::::::::::::$",
"$<<<<<<<<<<<<<<<<<<<<<<<<<<<<<<<<$",
"$[[[[[[[[[[[[[[[}}[[[[[[[[[[[[[[[$",
"$||||||||||||||}11}||||||||||||||$",
"$.............}1221}.............$",
"$333333333333}122221}333333333333$",
"$44444444444#12222221#44444444444$",
"$55555555555622277222655555555555$",
"$88888888888922088022988888888888$",
"$++++++++++++90++++09++++++++++++$",
"$aaaaaaaaaaaaaaaaaaaaaaaaaaaaaaaa$",
"$bbbbbbbbbbbbbbbbbbbbbbbbbbbbbbbb$",
"$cccccccccccccccccccccccccccccccc$",
"$ddddddeeeeeeeeeeeeeeeeeeeeeeeddd$",
"$eeeeeeeeeeeeeeeeeeeeeeeeeeeeeeee$",
"$ffffffffffffffffffffffffffffffff$",
"$gggggggggggggggggggggggggggggggg$",
"$hhhhhhhhhhhhhhhhhhhhhhhhhhhhhhhh$",
"$iiiiiiiiiiiiiiiiiiiiiiiiiiiiiiii$",
"$jjjjjjjjjjjjjjjjjjjjjjjjjjjjjjjj$",
"#kjjjjjjjjjjjjjjjjjjjjjjjjjjjjjjlm",
"nopqqqqqqqqqqqqqqqqqqqqqqqqqqqqrsn",
"+%m$$$$$$$$$$$$$$$$$$$$$$$$$$$$m%+",
"jtuvvvvvvvvvvvvvvvvvvvvvvvvvvvvutj"};
