/* XPM */
static char * shade_toggled_active_xpm[] = {
"34 36 24 1",
" 	c None",
".	c #424848",
"+	c #414848",
"@	c #414747",
"#	c #404747",
"$	c #404646",
"%	c #3F4646",
"&	c #3F4545",
"*	c #242726",
"=	c #9B9C9B",
"-	c #3E4545",
";	c #EEEEEC",
">	c #3E4444",
",	c #1F2222",
"'	c #A4A5A4",
")	c #DADAD8",
"!	c #3D4444",
"~	c #B5B7B6",
"{	c #B2B4B2",
"]	c #3D4343",
"^	c #3C4343",
"/	c #3C4242",
"(	c #3B4242",
"_	c #3B4141",
"                                  ",
"..................................",
"++++++++++++++++++++++++++++++++++",
"++++++++++++++++++++++++++++++++++",
"++++++++++++++++++++++++++++++++++",
"@@@@@@@@@@@@@@@@@@@@@@@@@@@@@@@@@@",
"@@@@@@@@@@@@@@@@@@@@@@@@@@@@@@@@@@",
"##################################",
"##################################",
"##################################",
"$$$$$$$$$$$$$$$$$$$$$$$$$$$$$$$$$$",
"%%%%%%%%%%%%%%%%%%%%%%%%%%%%%%%%%%",
"%%%%%%%%%%%%%%%%%%%%%%%%%%%%%%%%%%",
"%%%%%%%%%%%%%%%%%%%%%%%%%%%%%%%%%%",
"&&&&&&&&&&&&&&&&**&&&&&&&&&&&&&&&&",
"&&&&&&&&&&&&&&&*==*&&&&&&&&&&&&&&&",
"--------------*=;;=*--------------",
"-------------*=;;;;=*-------------",
">>>>>>>>>>>>,=;;;;;;=,>>>>>>>>>>>>",
">>>>>>>>>>>>';;;));;;'>>>>>>>>>>>>",
"!!!!!!!!!!!!~;;{!!{;;~!!!!!!!!!!!!",
"!!!!!!!!!!!!!~{!!!!{~!!!!!!!!!!!!!",
"]]]]]]]]]]]]]]]]]]]]]]]]]]]]]]]]]]",
"]]]]]]]]]]]]]]]]]]]]]]]]]]]]]]]]]]",
"]]]]]]]]]]]]]]]]]]]]]]]]]]]]]]]]]]",
"^^^^^^^^^^^^^^^^^^^^^^^^^^^^^^^^^^",
"//////////////////////////////////",
"//////////////////////////////////",
"//////////////////////////////////",
"//////////////////////////////////",
"((((((((((((((((((((((((((((((((((",
"__________________________________",
"__________________________________",
"__________________________________",
"__________________________________",
"                                  "};
