/* XPM */
static char * stick_active_xpm[] = {
"34 36 42 1",
" 	c None",
".	c #424848",
"+	c #414848",
"@	c #414747",
"#	c #404747",
"$	c #404646",
"%	c #3F4646",
"&	c #383F3F",
"*	c #222626",
"=	c #101111",
"-	c #2F3434",
";	c #272828",
">	c #8A8B8A",
",	c #DADAD8",
"'	c #3F4545",
")	c #383E3E",
"!	c #505050",
"~	c #EEEEEC",
"{	c #3A3D3D",
"]	c #5D6262",
"^	c #3E4545",
"/	c #8C8C8B",
"(	c #5C6261",
"_	c #DADAD9",
":	c #3D4444",
"<	c #3E4444",
"[	c #DCDCDA",
"}	c #353A3A",
"|	c #9DA09F",
"1	c #333434",
"2	c #3D4343",
"3	c #525858",
"4	c #0C0D0D",
"5	c #727776",
"6	c #525757",
"7	c #A0A2A1",
"8	c #DEDFDD",
"9	c #3C4343",
"0	c #3C4242",
"a	c #3B4242",
"b	c #3B4141",
"c	c #3A4141",
"                                  ",
"..................................",
"++++++++++++++++++++++++++++++++++",
"++++++++++++++++++++++++++++++++++",
"++++++++++++++++++++++++++++++++++",
"@@@@@@@@@@@@@@@@@@@@@@@@@@@@@@@@@@",
"@@@@@@@@@@@@@@@@@@@@@@@@@@@@@@@@@@",
"##################################",
"##################################",
"##################################",
"$$$$$$$$$$$$$$$$$$$$$$$$$$$$$$$$$$",
"%%%%%%%%%%%%%%%%%%%%%%%%%%%%%%%%%%",
"%%%%%%%%%%%%%%&*==*&%%%%%%%%%%%%%%",
"%%%%%%%%%%%%%-;>,,>;-%%%%%%%%%%%%%",
"'''''''''''')!~~~~~~!)''''''''''''",
"''''''''''''{~~]'']~~{''''''''''''",
"^^^^^^^^^^^^/~(^^^^(~/^^^^^^^^^^^^",
"^^^^^^^^^^^^_~:^^^^:~_^^^^^^^^^^^^",
"<<<<<<<<<<<<[~}<<<<}~[<<<<<<<<<<<<",
"<<<<<<<<<<<<|~1}22}1~|<<<<<<<<<<<<",
"::::::::::::3~~1441~~3::::::::::::",
":::::::::::::5~~~~~~5:::::::::::::",
"2222222222222267887622222222222222",
"2222222222222222222222222222222222",
"2222222222222222222222222222222222",
"9999999999999999999999999999999999",
"0000000000000000000000000000000000",
"0000000000000000000000000000000000",
"0000000000000000000000000000000000",
"0000000000000000000000000000000000",
"aaaaaaaaaaaaaaaaaaaaaaaaaaaaaaaaaa",
"bbbbbbbbbbbbbbbbbbbbbbbbbbbbbbbbbb",
"bbbbbbbbbbbbbbbbbbbbbbbbbbbbbbbbbb",
"bbbbbbbbbbbbbbbbbbbbbbbbbbbbbbbbbb",
"cccccccccccccccccccccccccccccccccc",
"                                  "};
