/* XPM */
static char * stick_prelight_xpm[] = {
"34 36 77 1",
" 	c None",
".	c #424949",
"+	c #404646",
"@	c #2D3131",
"#	c #1F2222",
"$	c #1C1F1F",
"%	c #2C3232",
"&	c #2E3333",
"*	c #5F6767",
"=	c #6A7272",
"-	c #2E3434",
";	c #1F2323",
">	c #596060",
",	c #596262",
"'	c #586161",
")	c #576060",
"!	c #565F5F",
"~	c #545D5D",
"{	c #535B5B",
"]	c #515959",
"^	c #4F5757",
"/	c #4D5555",
"(	c #4B5353",
"_	c #495151",
":	c #474F4F",
"<	c #3F4646",
"[	c #252929",
"}	c #111212",
"|	c #454D4D",
"1	c #333939",
"2	c #272828",
"3	c #8A8B8A",
"4	c #DADAD8",
"5	c #444B4B",
"6	c #3D4343",
"7	c #505050",
"8	c #EEEEEC",
"9	c #434A4A",
"0	c #3C3F3F",
"a	c #616666",
"b	c #8B8D8C",
"c	c #606565",
"d	c #424848",
"e	c #414848",
"f	c #DBDBDB",
"g	c #383E3E",
"h	c #414747",
"i	c #9EA0A0",
"j	c #333434",
"k	c #373C3C",
"l	c #404747",
"m	c #555B5B",
"n	c #0C0D0D",
"o	c #747878",
"p	c #545A5A",
"q	c #A1A4A3",
"r	c #DEDFDD",
"s	c #3E4545",
"t	c #3E4444",
"u	c #3D4444",
"v	c #3C4343",
"w	c #3C4242",
"x	c #3B4242",
"y	c #3B4141",
"z	c #3A4040",
"A	c #363C3C",
"B	c #363B3B",
"C	c #1F2121",
"D	c #2C3131",
"E	c #232828",
"F	c #353B3B",
"G	c #393F3F",
"H	c #353A3A",
"I	c #242727",
"J	c #434848",
"K	c #494E4E",
"L	c #4B5050",
"..................................",
"+@#$$$$$$$$$$$$$$$$$$$$$$$$$$$$#@+",
"%&*============================*-%",
";>,'''''''''''''''''''''''''''',>#",
"$)!!!!!!!!!!!!!!!!!!!!!!!!!!!!!!)$",
"$~~~~~~~~~~~~~~~~~~~~~~~~~~~~~~~~$",
"${{{{{{{{{{{{{{{{{{{{{{{{{{{{{{{{$",
"$]]]]]]]]]]]]]]]]]]]]]]]]]]]]]]]]$",
"$^^^^^^^^^^^^^^^^^^^^^^^^^^^^^^^^$",
"$////////////////////////////////$",
"$(((((((((((((((((((((((((((((((($",
"$________________________________$",
"$:::::::::::::<[}}[<:::::::::::::$",
"$||||||||||||12344321||||||||||||$",
"$55555555555678888887655555555555$",
"$99999999999088a99a88099999999999$",
"$...........b8c....c8b...........$",
"$ddddddddddd48dddddd84ddddddddddd$",
"$eeeeeeeeeeef8geeeeg8feeeeeeeeeee$",
"$hhhhhhhhhhhi8jk++kj8ihhhhhhhhhhh$",
"$lllllllllllm88jnnj88mlllllllllll$",
"$++++++++++++o888888o++++++++++++$",
"$<<<<<<<<<<<<<pqrrqp<<<<<<<<<<<<<$",
"$ssssssssssssssssssssssssssssssss$",
"$tttttttttttttttttttttttttttttttt$",
"$uuuuuuuuuuuuuuuuuuuuuuuuuuuuuuuu$",
"$66666666666666666666666666666666$",
"$vvvvvvvvvvvvvvvvvvvvvvvvvvvvvvvv$",
"$wwwwwwwwwwwwwwwwwwwwwwwwwwwwwwww$",
"$xxxxxxxxxxxxxxxxxxxxxxxxxxxxxxxx$",
"$yyyyyyyyyyyyyyyyyyyyyyyyyyyyyyyy$",
"$zzzzzzzzzzzzzzzzzzzzzzzzzzzzzzzz$",
"#AzzzzzzzzzzzzzzzzzzzzzzzzzzzzzzBC",
"DEFGGGGGGGGGGGGGGGGGGGGGGGGGGGGHID",
"+%C$$$$$$$$$$$$$$$$$$$$$$$$$$$$C%+",
"zJKLLLLLLLLLLLLLLLLLLLLLLLLLLLLKJz"};
