/* XPM */
static char * stick_toggled_active_xpm[] = {
"34 36 49 1",
" 	c None",
".	c #424848",
"+	c #414848",
"@	c #414747",
"#	c #404747",
"$	c #404646",
"%	c #3F4646",
"&	c #383F3F",
"*	c #222626",
"=	c #101111",
"-	c #2F3434",
";	c #272828",
">	c #8A8B8A",
",	c #DADAD8",
"'	c #3F4545",
")	c #383E3E",
"!	c #505050",
"~	c #EEEEEC",
"{	c #3A3D3D",
"]	c #585C5B",
"^	c #171919",
"/	c #3E4545",
"(	c #8C8C8B",
"_	c #5C6261",
":	c #333635",
"<	c #BCBCBB",
"[	c #DADAD9",
"}	c #3D4444",
"|	c #BEBFBD",
"1	c #3E4444",
"2	c #DCDCDA",
"3	c #353A3A",
"4	c #C5C6C5",
"5	c #9DA09F",
"6	c #333434",
"7	c #4E5252",
"8	c #C7C8C6",
"9	c #525858",
"0	c #0C0D0D",
"a	c #727776",
"b	c #3D4343",
"c	c #525757",
"d	c #A0A2A1",
"e	c #DEDFDD",
"f	c #3C4343",
"g	c #3C4242",
"h	c #3B4242",
"i	c #3B4141",
"j	c #3A4141",
"                                  ",
"..................................",
"++++++++++++++++++++++++++++++++++",
"++++++++++++++++++++++++++++++++++",
"++++++++++++++++++++++++++++++++++",
"@@@@@@@@@@@@@@@@@@@@@@@@@@@@@@@@@@",
"@@@@@@@@@@@@@@@@@@@@@@@@@@@@@@@@@@",
"##################################",
"##################################",
"##################################",
"$$$$$$$$$$$$$$$$$$$$$$$$$$$$$$$$$$",
"%%%%%%%%%%%%%%%%%%%%%%%%%%%%%%%%%%",
"%%%%%%%%%%%%%%&*==*&%%%%%%%%%%%%%%",
"%%%%%%%%%%%%%-;>,,>;-%%%%%%%%%%%%%",
"'''''''''''')!~~~~~~!)''''''''''''",
"''''''''''''{~~]^^]~~{''''''''''''",
"////////////(~_:<<:_~(////////////",
"////////////[~}|~~|}~[////////////",
"1111111111112~34~~43~2111111111111",
"1111111111115~678876~5111111111111",
"}}}}}}}}}}}}9~~6006~~9}}}}}}}}}}}}",
"}}}}}}}}}}}}}a~~~~~~a}}}}}}}}}}}}}",
"bbbbbbbbbbbbbbcdeedcbbbbbbbbbbbbbb",
"bbbbbbbbbbbbbbbbbbbbbbbbbbbbbbbbbb",
"bbbbbbbbbbbbbbbbbbbbbbbbbbbbbbbbbb",
"ffffffffffffffffffffffffffffffffff",
"gggggggggggggggggggggggggggggggggg",
"gggggggggggggggggggggggggggggggggg",
"gggggggggggggggggggggggggggggggggg",
"gggggggggggggggggggggggggggggggggg",
"hhhhhhhhhhhhhhhhhhhhhhhhhhhhhhhhhh",
"iiiiiiiiiiiiiiiiiiiiiiiiiiiiiiiiii",
"iiiiiiiiiiiiiiiiiiiiiiiiiiiiiiiiii",
"iiiiiiiiiiiiiiiiiiiiiiiiiiiiiiiiii",
"jjjjjjjjjjjjjjjjjjjjjjjjjjjjjjjjjj",
"                                  "};
