/* XPM */
static char * stick_pressed_xpm[] = {
"34 36 53 1",
" 	c None",
".	c #424949",
"+	c #404646",
"@	c #2D3131",
"#	c #1F2222",
"$	c #1C1F1F",
"%	c #2C3232",
"&	c #1D2020",
"*	c #1E2323",
"=	c #202424",
"-	c #1C2121",
";	c #1F2323",
">	c #212424",
",	c #232727",
"'	c #242828",
")	c #252929",
"!	c #262A2A",
"~	c #272B2B",
"{	c #282C2C",
"]	c #181A1A",
"^	c #0E0F0F",
"/	c #272828",
"(	c #8A8B8A",
"_	c #DADAD8",
":	c #292D2D",
"<	c #505050",
"[	c #EEEEEC",
"}	c #323434",
"|	c #4B4F4E",
"1	c #8B8C8B",
"2	c #4B4E4E",
"3	c #2A2E2E",
"4	c #DADAD9",
"5	c #252828",
"6	c #959796",
"7	c #333434",
"8	c #414545",
"9	c #0C0D0D",
"0	c #2A2F2F",
"a	c #656868",
"b	c #2B2F2F",
"c	c #424645",
"d	c #989A98",
"e	c #DDDDDB",
"f	c #2B3030",
"g	c #2C3030",
"h	c #2C3131",
"i	c #2D3232",
"j	c #1F2121",
"k	c #3A4040",
"l	c #434848",
"m	c #494E4E",
"n	c #4B5050",
"..................................",
"+@#$$$$$$$$$$$$$$$$$$$$$$$$$$$$#@+",
"%&*============================*-%",
";>,'''''''''''''''''''''''''''',>#",
"$,'''''''''''''''''''''''''''''',$",
"$))))))))))))))))))))))))))))))))$",
"$))))))))))))))))))))))))))))))))$",
"$!!!!!!!!!!!!!!!!!!!!!!!!!!!!!!!!$",
"$!!!!!!!!!!!!!!!!!!!!!!!!!!!!!!!!$",
"$~~~~~~~~~~~~~~~~~~~~~~~~~~~~~~~~$",
"$~~~~~~~~~~~~~~~~~~~~~~~~~~~~~~~~$",
"$~~~~~~~~~~~~~~~~~~~~~~~~~~~~~~~~$",
"${{{{{{{{{{{{{']^^]'{{{{{{{{{{{{{$",
"${{{{{{{{{{{{#/(__(/#{{{{{{{{{{{{$",
"$:::::::::::)<[[[[[[<):::::::::::$",
"$:::::::::::}[[|::|[[}:::::::::::$",
"$:::::::::::1[2::::2[1:::::::::::$",
"$33333333333_[333333[_33333333333$",
"$333333333334[533335[433333333333$",
"$333333333336[7'::'7[633333333333$",
"$333333333338[[7997[[833333333333$",
"$000000000000a[[[[[[a000000000000$",
"$bbbbbbbbbbbbbcdeedcbbbbbbbbbbbbb$",
"$bbbbbbbbbbbbbbbbbbbbbbbbbbbbbbbb$",
"$ffffffffffffffffffffffffffffffff$",
"$ffffffffffffffffffffffffffffffff$",
"$ffffffffffffffffffffffffffffffff$",
"$gggggggggggggggggggggggggggggggg$",
"$hhhhhhhhhhhhhhhhhhhhhhhhhhhhhhhh$",
"$hhhhhhhhhhhhhhhhhhhhhhhhhhhhhhhh$",
"$hhhhhhhhhhhhhhhhhhhhhhhhhhhhhhhh$",
"$hhhhhhhhhhhhhhhhhhhhhhhhhhhhhhhh$",
"#biiiiiiiiiiiiiiiiiiiiiiiiiiiiii0j",
"h=biiiiiiiiiiiiiiiiiiiiiiiiiiii0=h",
"+%j$$$$$$$$$$$$$$$$$$$$$$$$$$$$j%+",
"klmnnnnnnnnnnnnnnnnnnnnnnnnnnnnmlk"};
