/* XPM */
static char * stick_toggled_prelight_xpm[] = {
"34 36 83 1",
" 	c None",
".	c #424949",
"+	c #404646",
"@	c #2D3131",
"#	c #1F2222",
"$	c #1C1F1F",
"%	c #2C3232",
"&	c #2E3333",
"*	c #5F6767",
"=	c #6A7272",
"-	c #2E3434",
";	c #1F2323",
">	c #596060",
",	c #596262",
"'	c #586161",
")	c #576060",
"!	c #565F5F",
"~	c #545D5D",
"{	c #535B5B",
"]	c #515959",
"^	c #4F5757",
"/	c #4D5555",
"(	c #4B5353",
"_	c #495151",
":	c #474F4F",
"<	c #3F4646",
"[	c #252929",
"}	c #111212",
"|	c #454D4D",
"1	c #333939",
"2	c #272828",
"3	c #8A8B8A",
"4	c #DADAD8",
"5	c #444B4B",
"6	c #3D4343",
"7	c #505050",
"8	c #EEEEEC",
"9	c #434A4A",
"0	c #3C3F3F",
"a	c #5A5F5F",
"b	c #181B1B",
"c	c #8B8D8C",
"d	c #606565",
"e	c #353736",
"f	c #BCBCBB",
"g	c #424848",
"h	c #BEBFBD",
"i	c #414848",
"j	c #DBDBDB",
"k	c #383E3E",
"l	c #C6C7C5",
"m	c #414747",
"n	c #9EA0A0",
"o	c #333434",
"p	c #505454",
"q	c #C8C9C7",
"r	c #404747",
"s	c #555B5B",
"t	c #0C0D0D",
"u	c #747878",
"v	c #545A5A",
"w	c #A1A4A3",
"x	c #DEDFDD",
"y	c #3E4545",
"z	c #3E4444",
"A	c #3D4444",
"B	c #3C4343",
"C	c #3C4242",
"D	c #3B4242",
"E	c #3B4141",
"F	c #3A4040",
"G	c #363C3C",
"H	c #363B3B",
"I	c #1F2121",
"J	c #2C3131",
"K	c #232828",
"L	c #353B3B",
"M	c #393F3F",
"N	c #353A3A",
"O	c #242727",
"P	c #434848",
"Q	c #494E4E",
"R	c #4B5050",
"..................................",
"+@#$$$$$$$$$$$$$$$$$$$$$$$$$$$$#@+",
"%&*============================*-%",
";>,'''''''''''''''''''''''''''',>#",
"$)!!!!!!!!!!!!!!!!!!!!!!!!!!!!!!)$",
"$~~~~~~~~~~~~~~~~~~~~~~~~~~~~~~~~$",
"${{{{{{{{{{{{{{{{{{{{{{{{{{{{{{{{$",
"$]]]]]]]]]]]]]]]]]]]]]]]]]]]]]]]]$",
"$^^^^^^^^^^^^^^^^^^^^^^^^^^^^^^^^$",
"$////////////////////////////////$",
"$(((((((((((((((((((((((((((((((($",
"$________________________________$",
"$:::::::::::::<[}}[<:::::::::::::$",
"$||||||||||||12344321||||||||||||$",
"$55555555555678888887655555555555$",
"$99999999999088abba88099999999999$",
"$...........c8deffed8c...........$",
"$ggggggggggg48gh88hg84ggggggggggg$",
"$iiiiiiiiiiij8kl88lk8jiiiiiiiiiii$",
"$mmmmmmmmmmmn8opqqpo8nmmmmmmmmmmm$",
"$rrrrrrrrrrrs88otto88srrrrrrrrrrr$",
"$++++++++++++u888888u++++++++++++$",
"$<<<<<<<<<<<<<vwxxwv<<<<<<<<<<<<<$",
"$yyyyyyyyyyyyyyyyyyyyyyyyyyyyyyyy$",
"$zzzzzzzzzzzzzzzzzzzzzzzzzzzzzzzz$",
"$AAAAAAAAAAAAAAAAAAAAAAAAAAAAAAAA$",
"$66666666666666666666666666666666$",
"$BBBBBBBBBBBBBBBBBBBBBBBBBBBBBBBB$",
"$CCCCCCCCCCCCCCCCCCCCCCCCCCCCCCCC$",
"$DDDDDDDDDDDDDDDDDDDDDDDDDDDDDDDD$",
"$EEEEEEEEEEEEEEEEEEEEEEEEEEEEEEEE$",
"$FFFFFFFFFFFFFFFFFFFFFFFFFFFFFFFF$",
"#GFFFFFFFFFFFFFFFFFFFFFFFFFFFFFFHI",
"JKLMMMMMMMMMMMMMMMMMMMMMMMMMMMMNOJ",
"+%I$$$$$$$$$$$$$$$$$$$$$$$$$$$$I%+",
"FPQRRRRRRRRRRRRRRRRRRRRRRRRRRRRQPF"};
