/* XPM */
static char * stick_toggled_pressed_xpm[] = {
"34 36 60 1",
" 	c None",
".	c #424949",
"+	c #404646",
"@	c #2D3131",
"#	c #1F2222",
"$	c #1C1F1F",
"%	c #2C3232",
"&	c #1D2020",
"*	c #1E2323",
"=	c #202424",
"-	c #1C2121",
";	c #1F2323",
">	c #212424",
",	c #232727",
"'	c #242828",
")	c #252929",
"!	c #262A2A",
"~	c #272B2B",
"{	c #282C2C",
"]	c #181A1A",
"^	c #0E0F0F",
"/	c #272828",
"(	c #8A8B8A",
"_	c #DADAD8",
":	c #292D2D",
"<	c #505050",
"[	c #EEEEEC",
"}	c #323434",
"|	c #484B4A",
"1	c #131414",
"2	c #8B8C8B",
"3	c #4B4E4E",
"4	c #303131",
"5	c #BCBCBB",
"6	c #2A2E2E",
"7	c #BDBDBB",
"8	c #DADAD9",
"9	c #252828",
"0	c #C1C2C0",
"a	c #959796",
"b	c #333434",
"c	c #404342",
"d	c #C2C3C2",
"e	c #414545",
"f	c #0C0D0D",
"g	c #2A2F2F",
"h	c #656868",
"i	c #2B2F2F",
"j	c #424645",
"k	c #989A98",
"l	c #DDDDDB",
"m	c #2B3030",
"n	c #2C3030",
"o	c #2C3131",
"p	c #2D3232",
"q	c #1F2121",
"r	c #3A4040",
"s	c #434848",
"t	c #494E4E",
"u	c #4B5050",
"..................................",
"+@#$$$$$$$$$$$$$$$$$$$$$$$$$$$$#@+",
"%&*============================*-%",
";>,'''''''''''''''''''''''''''',>#",
"$,'''''''''''''''''''''''''''''',$",
"$))))))))))))))))))))))))))))))))$",
"$))))))))))))))))))))))))))))))))$",
"$!!!!!!!!!!!!!!!!!!!!!!!!!!!!!!!!$",
"$!!!!!!!!!!!!!!!!!!!!!!!!!!!!!!!!$",
"$~~~~~~~~~~~~~~~~~~~~~~~~~~~~~~~~$",
"$~~~~~~~~~~~~~~~~~~~~~~~~~~~~~~~~$",
"$~~~~~~~~~~~~~~~~~~~~~~~~~~~~~~~~$",
"${{{{{{{{{{{{{']^^]'{{{{{{{{{{{{{$",
"${{{{{{{{{{{{#/(__(/#{{{{{{{{{{{{$",
"$:::::::::::)<[[[[[[<):::::::::::$",
"$:::::::::::}[[|11|[[}:::::::::::$",
"$:::::::::::2[345543[2:::::::::::$",
"$66666666666_[67[[76[_66666666666$",
"$666666666668[90[[09[866666666666$",
"$66666666666a[bcddcb[a66666666666$",
"$66666666666e[[bffb[[e66666666666$",
"$ggggggggggggh[[[[[[hgggggggggggg$",
"$iiiiiiiiiiiiijkllkjiiiiiiiiiiiii$",
"$iiiiiiiiiiiiiiiiiiiiiiiiiiiiiiii$",
"$mmmmmmmmmmmmmmmmmmmmmmmmmmmmmmmm$",
"$mmmmmmmmmmmmmmmmmmmmmmmmmmmmmmmm$",
"$mmmmmmmmmmmmmmmmmmmmmmmmmmmmmmmm$",
"$nnnnnnnnnnnnnnnnnnnnnnnnnnnnnnnn$",
"$oooooooooooooooooooooooooooooooo$",
"$oooooooooooooooooooooooooooooooo$",
"$oooooooooooooooooooooooooooooooo$",
"$oooooooooooooooooooooooooooooooo$",
"#ippppppppppppppppppppppppppppppgq",
"o=ippppppppppppppppppppppppppppg=o",
"+%q$$$$$$$$$$$$$$$$$$$$$$$$$$$$q%+",
"rstuuuuuuuuuuuuuuuuuuuuuuuuuuuutsr"};
