/* XPM */
static char * stick_toggled_inactive_xpm[] = {
"34 36 10 1",
" 	c None",
".	c #393F3F",
"+	c #434949",
"@	c #6B6F6F",
"#	c #8B8E8D",
"$	c #545958",
"%	c #939695",
"&	c #484E4E",
"*	c #454A4A",
"=	c #7F8282",
"..................................",
"..................................",
"..................................",
"..................................",
"..................................",
"..................................",
"..................................",
"..................................",
"..................................",
"..................................",
"..................................",
"..................................",
"..................................",
"..............+@##@+..............",
".............$%%%%%%$.............",
"............+%%&..&%%+............",
"............@%&*==*&%@............",
"............#%.=%%=.%#............",
"............#%.=%%=.%#............",
"............@%&*==*&%@............",
"............+%%&..&%%+............",
".............$%%%%%%$.............",
"..............+@##@+..............",
"..................................",
"..................................",
"..................................",
"..................................",
"..................................",
"..................................",
"..................................",
"..................................",
"..................................",
"..................................",
"..................................",
"..................................",
".................................."};
