/* XPM */
static char * title_2_inactive_xpm[] = {
"1 48 4 1",
".	c #1E2121",
"+	c #4A4F4F",
"@	c #393F3F",
"#	c #1E2222",
".",
"+",
"@",
"@",
"@",
"@",
"@",
"@",
"@",
"@",
"@",
"@",
"@",
"@",
"@",
"@",
"@",
"@",
"@",
"@",
"@",
"@",
"@",
"@",
"@",
"@",
"@",
"@",
"@",
"@",
"@",
"@",
"@",
"@",
"@",
"@",
"@",
"@",
"@",
"@",
"@",
"@",
"@",
"@",
"@",
"@",
"@",
"#"};