/* XPM */
static char * title_4_active_xpm[] = {
"1 48 25 1",
" 	c None",
".	c #1F2529",
"+	c #535959",
"@	c #434A4A",
"#	c #424949",
"$	c #424848",
"%	c #414848",
"&	c #414747",
"*	c #404747",
"=	c #404646",
"-	c #3F4646",
";	c #3F4545",
">	c #3E4545",
",	c #3E4444",
"'	c #3D4444",
")	c #3D4343",
"!	c #3C4343",
"~	c #3C4242",
"{	c #3B4242",
"]	c #3B4141",
"^	c #3A4141",
"/	c #3A4040",
"(	c #393F3F",
"_	c #2D3232",
":	c #1C1F1F",
".",
"+",
"@",
"#",
"#",
"#",
"#",
"$",
"%",
"%",
"%",
"&",
"&",
"*",
"*",
"*",
"=",
"-",
"-",
"-",
";",
";",
">",
">",
",",
",",
"'",
"'",
")",
")",
")",
"!",
"~",
"~",
"~",
"~",
"{",
"]",
"]",
"]",
"^",
"/",
"/",
"/",
"/",
"(",
"_",
":"};
