/* XPM */
static char * top_right_inactive_xpm[] = {
"7 48 20 1",
" 	c None",
".	c #212525",
"+	c #282C2C",
"@	c #444A4A",
"#	c #393E3E",
"$	c #272C2C",
"%	c #3C4242",
"&	c #414747",
"*	c #464C4C",
"=	c #313535",
"-	c #232727",
";	c #393F3F",
">	c #262B2B",
",	c #434949",
"'	c #373D3D",
")	c #272B2B",
"!	c #3A4040",
"~	c #3B4141",
"{	c #1E2222",
"]	c #1E2121",
".+     ",
"@#.$   ",
"%&*=-  ",
";;;@=> ",
";;;;,. ",
";;;;;')",
";;;;;!.",
";;;;;~{",
";;;;;;]",
";;;;;;]",
";;;;;;]",
";;;;;;]",
";;;;;;]",
";;;;;;]",
";;;;;;]",
";;;;;;]",
";;;;;;]",
";;;;;;]",
";;;;;;]",
";;;;;;]",
";;;;;;]",
";;;;;;]",
";;;;;;]",
";;;;;;]",
";;;;;;]",
";;;;;;]",
";;;;;;]",
";;;;;;]",
";;;;;;]",
";;;;;;]",
";;;;;;]",
";;;;;;]",
";;;;;;]",
";;;;;;]",
";;;;;;]",
";;;;;;]",
";;;;;;]",
";;;;;;]",
";;;;;;]",
";;;;;;]",
";;;;;;]",
";;;;;;]",
";;;;;;]",
";;;;;;]",
";;;;;;]",
";;;;;;]",
";;;;;;]",
"{{{{{{]"};
