/* XPM */
static char * top_left_inactive_xpm[] = {
"7 48 20 1",
" 	c None",
".	c #282C2C",
"+	c #212525",
"@	c #272C2C",
"#	c #393E3E",
"$	c #444A4A",
"%	c #232727",
"&	c #313535",
"*	c #464C4C",
"=	c #414747",
"-	c #3C4242",
";	c #262B2B",
">	c #393F3F",
",	c #434949",
"'	c #272B2B",
")	c #373D3D",
"!	c #3A4040",
"~	c #1E2222",
"{	c #3B4141",
"]	c #1E2121",
"     .+",
"   @+#$",
"  %&*=-",
" ;&$>>>",
" +,>>>>",
"')>>>>>",
"+!>>>>>",
"~{>>>>>",
"]>>>>>>",
"]>>>>>>",
"]>>>>>>",
"]>>>>>>",
"]>>>>>>",
"]>>>>>>",
"]>>>>>>",
"]>>>>>>",
"]>>>>>>",
"]>>>>>>",
"]>>>>>>",
"]>>>>>>",
"]>>>>>>",
"]>>>>>>",
"]>>>>>>",
"]>>>>>>",
"]>>>>>>",
"]>>>>>>",
"]>>>>>>",
"]>>>>>>",
"]>>>>>>",
"]>>>>>>",
"]>>>>>>",
"]>>>>>>",
"]>>>>>>",
"]>>>>>>",
"]>>>>>>",
"]>>>>>>",
"]>>>>>>",
"]>>>>>>",
"]>>>>>>",
"]>>>>>>",
"]>>>>>>",
"]>>>>>>",
"]>>>>>>",
"]>>>>>>",
"]>>>>>>",
"]>>>>>>",
"]>>>>>>",
"]~~~~~~"};
