/* XPM */
static char * top_right_active_xpm[] = {
"7 48 38 1",
" 	c None",
".	c #1C1F1F",
"+	c #1F2020",
"@	c #4A5050",
"#	c #3B3E3E",
"$	c #202323",
"%	c #1F2121",
"&	c #454C4C",
"*	c #4A5151",
"=	c #4E5555",
"-	c #2F3333",
";	c #1D1F1F",
">	c #424949",
",	c #4C5353",
"'	c #1E2020",
")	c #4B5050",
"!	c #393D3D",
"~	c #414747",
"{	c #424848",
"]	c #434848",
"^	c #1B1E1E",
"/	c #414848",
"(	c #404747",
"_	c #404646",
":	c #3F4646",
"<	c #3F4545",
"[	c #3E4545",
"}	c #3E4444",
"|	c #3D4444",
"1	c #3D4343",
"2	c #3C4343",
"3	c #3C4242",
"4	c #3B4242",
"5	c #3B4141",
"6	c #3A4141",
"7	c #3A4040",
"8	c #393F3F",
"9	c #2D3232",
".+     ",
"@#$%   ",
"&*=-;  ",
">>>,-' ",
">>>>)$ ",
">>>>>!+",
">>>>>~.",
"{{{{{]^",
"//////.",
"//////.",
"//////.",
"~~~~~~.",
"~~~~~~.",
"((((((.",
"((((((.",
"((((((.",
"______.",
"::::::.",
"::::::.",
"::::::.",
"<<<<<<.",
"<<<<<<.",
"[[[[[[.",
"[[[[[[.",
"}}}}}}.",
"}}}}}}.",
"||||||.",
"||||||.",
"111111.",
"111111.",
"111111.",
"222222.",
"333333.",
"333333.",
"333333.",
"333333.",
"444444.",
"555555.",
"555555.",
"555555.",
"666666.",
"777777.",
"777777.",
"777777.",
"777777.",
"888888.",
"999999.",
"......."};
